# xmcd
#
# Track frame offsets:
#	150
#	132002
#	211540
#	325665
#
# Disc length: 4471 seconds
#
# Revision: 1
# Processed by: cddbd v1.5.1PL0 Copyright (c) Steve Scherf et al.
# Submitted via: CDex 1.50Beta5
#
DISCID=29117504
DTITLE=吉田直 - Trinity Blood R.A.M. Mission2
DYEAR=2002
DGENRE=Soundtrack
TTITLE0=ガンスリンガー
TTITLE1=仮面
TTITLE2=相棒
TTITLE3=聖なる合唱〜混沌〜
EXTD=
EXTT0=
EXTT1=
EXTT2=
EXTT3=
PLAYORDER=
